<mxfile host="app.diagrams.net" modified="2023-11-30T06:21:31.910Z" agent="Mozilla/5.0 (X11; Linux x86_64) AppleWebKit/537.36 (KHTML, like Gecko) Chrome/118.0.0.0 Safari/537.36" version="22.1.5" etag="q8k-Aoy_EtP1agckKjQu" type="github">
  <diagram name="第 1 页" id="AfMiUc5nERj3xcdKtqp7">
    <mxGraphModel>
      <root>
        <mxCell id="0" />
        <mxCell id="1" parent="0" />
      </root>
    </mxGraphModel>
  </diagram>
</mxfile>
